<?xml version="1.0" encoding="UTF-8"?>
<svg width="230px" height="64px" viewBox="0 0 230 64" version="1.1" xmlns="http://www.w3.org/2000/svg" xmlns:xlink="http://www.w3.org/1999/xlink">
    <title>logo</title>
    <defs>
        <linearGradient x1="50%" y1="44.0212674%" x2="50%" y2="100%" id="linearGradient-1">
            <stop stop-color="#4D4AAA" offset="0%"></stop>
            <stop stop-color="#5753D9" offset="100%"></stop>
        </linearGradient>
        <rect id="path-2" x="18.468277" y="11.4327429" width="26.3832528" height="12.3121846" rx="1.75888352"></rect>
        <filter x="-13.3%" y="-20.3%" width="126.5%" height="156.9%" filterUnits="objectBoundingBox" id="filter-3">
            <feOffset dx="0" dy="1" in="SourceAlpha" result="shadowOffsetOuter1"></feOffset>
            <feGaussianBlur stdDeviation="1" in="shadowOffsetOuter1" result="shadowBlurOuter1"></feGaussianBlur>
            <feColorMatrix values="0 0 0 0 0   0 0 0 0 0   0 0 0 0 0  0 0 0 0.24 0" type="matrix" in="shadowBlurOuter1"></feColorMatrix>
        </filter>
        <rect id="path-4" x="15.8299517" y="14.0710682" width="31.6599034" height="8.35469673" rx="1.75888352"></rect>
        <filter x="-11.1%" y="-29.9%" width="122.1%" height="183.8%" filterUnits="objectBoundingBox" id="filter-5">
            <feOffset dx="0" dy="1" in="SourceAlpha" result="shadowOffsetOuter1"></feOffset>
            <feGaussianBlur stdDeviation="1" in="shadowOffsetOuter1" result="shadowBlurOuter1"></feGaussianBlur>
            <feColorMatrix values="0 0 0 0 0   0 0 0 0 0   0 0 0 0 0  0 0 0 0.24 0" type="matrix" in="shadowBlurOuter1"></feColorMatrix>
        </filter>
        <rect id="path-6" x="13.1916264" y="17.1491143" width="36.9365539" height="8.79441761" rx="1.75888352"></rect>
        <filter x="-9.5%" y="-28.4%" width="119.0%" height="179.6%" filterUnits="objectBoundingBox" id="filter-7">
            <feOffset dx="0" dy="1" in="SourceAlpha" result="shadowOffsetOuter1"></feOffset>
            <feGaussianBlur stdDeviation="1" in="shadowOffsetOuter1" result="shadowBlurOuter1"></feGaussianBlur>
            <feColorMatrix values="0 0 0 0 0   0 0 0 0 0   0 0 0 0 0  0 0 0 0.24 0" type="matrix" in="shadowBlurOuter1"></feColorMatrix>
        </filter>
        <linearGradient x1="50%" y1="27.7777778%" x2="50%" y2="100%" id="linearGradient-8">
            <stop stop-color="#FFFFFF" offset="0%"></stop>
            <stop stop-color="#EEEEEE" offset="100%"></stop>
        </linearGradient>
        <path d="M14.0710682,20.2271605 C16.8482734,20.2271605 19.6254786,20.2271605 22.4026838,20.2271605 C25.980891,20.2271605 24.5517982,23.5877089 28.0695652,23.5877089 C30.6960273,23.5877089 37.7557479,23.5877089 49.2487269,23.5877089 C51.1915424,23.5876972 52.7665056,25.1626604 52.7665056,27.1054759 C52.7665056,35.3896573 52.7665056,41.881477 52.7665056,46.5809348 C52.7665056,49.7056553 49.8221346,51.8870639 47.7572054,51.8870639 C43.912286,51.8870639 30.1690001,51.8870639 15.6575811,51.8870639 C12.4493776,51.8870639 10.5533011,48.8802574 10.5533011,46.5809348 C10.5533011,38.9689324 10.5533011,31.35693 10.5533011,23.7449275 C10.5533011,21.8021184 12.1282591,20.2271605 14.0710682,20.2271605 Z" id="path-9"></path>
        <filter x="-23.7%" y="-25.3%" width="147.4%" height="163.2%" filterUnits="objectBoundingBox" id="filter-10">
            <feOffset dx="0" dy="2" in="SourceAlpha" result="shadowOffsetOuter1"></feOffset>
            <feGaussianBlur stdDeviation="3" in="shadowOffsetOuter1" result="shadowBlurOuter1"></feGaussianBlur>
            <feColorMatrix values="0 0 0 0 0   0 0 0 0 0   0 0 0 0 0  0 0 0 0.16 0" type="matrix" in="shadowBlurOuter1"></feColorMatrix>
        </filter>
    </defs>
    <g id="💻-/-Web" stroke="none" stroke-width="1" fill="none" fill-rule="evenodd">
        <g id="1.00-Links-/-Start-Here" transform="translate(-224.000000, -48.000000)">
            <g id="hero">
                <g id="navbar">
                    <g id="logo" transform="translate(224.000000, 48.000000)">
                        <g id="icon">
                            <rect id="icon-bg" fill="url(#linearGradient-1)" x="-1.77635684e-14" y="-1.77635684e-14" width="63.3198068" height="63.3198068" rx="13.8512077"></rect>
                            <g id="Rectangle">
                                <use fill="black" fill-opacity="1" filter="url(#filter-3)" xlink:href="#path-2"></use>
                                <use fill="#53B1FF" fill-rule="evenodd" xlink:href="#path-2"></use>
                            </g>
                            <g id="Rectangle">
                                <use fill="black" fill-opacity="1" filter="url(#filter-5)" xlink:href="#path-4"></use>
                                <use fill="#FF85B8" fill-rule="evenodd" xlink:href="#path-4"></use>
                            </g>
                            <g id="Rectangle">
                                <use fill="black" fill-opacity="1" filter="url(#filter-7)" xlink:href="#path-6"></use>
                                <use fill="#9876F8" fill-rule="evenodd" xlink:href="#path-6"></use>
                            </g>
                            <g id="Path-3">
                                <use fill="black" fill-opacity="1" filter="url(#filter-10)" xlink:href="#path-9"></use>
                                <use fill="url(#linearGradient-8)" fill-rule="evenodd" xlink:href="#path-9"></use>
                            </g>
                        </g>
                        <g id="logotype" transform="translate(76.000000, 6.000000)" fill-rule="nonzero">
                            <path d="M6.57066667,22.2370909 C8.94189899,22.2370909 10.7927273,21.6578586 12.1231515,20.4993939 C13.4535758,19.3409293 14.1187879,17.7389899 14.1187879,15.6935758 C14.1187879,14.0644848 13.7069899,12.7431111 12.8833939,11.7294545 C12.059798,10.715798 10.6705455,9.81979798 8.71563636,9.04145455 C7.46666667,8.55272727 6.60234343,8.12282828 6.12266667,7.75175758 C5.6429899,7.38068687 5.40315152,6.8150303 5.40315152,6.05478788 C5.40315152,5.29454545 5.58868687,4.73341414 5.95975758,4.37139394 C6.33082828,4.00937374 6.88743434,3.82836364 7.62957576,3.82836364 C8.40791919,3.82836364 9.19078788,3.96412121 9.97818182,4.23563636 C10.7655758,4.50715152 11.6027475,4.90537374 12.489697,5.43030303 L12.489697,5.43030303 L13.0870303,1.87345455 C12.3629899,1.34852525 11.4805657,0.909575758 10.4397576,0.556606061 C9.39894949,0.203636364 8.32646465,0.0271515152 7.22230303,0.0271515152 C4.99587879,0.0271515152 3.29890909,0.651636364 2.13139394,1.90060606 C0.963878788,3.14957576 0.380121212,4.71531313 0.380121212,6.59781818 C0.380121212,8.2450101 0.787393939,9.56185859 1.60193939,10.5483636 C2.41648485,11.5348687 3.79216162,12.3810909 5.7289697,13.0870303 C6.94173737,13.5395556 7.7970101,13.9513535 8.29478788,14.3224242 C8.79256566,14.6934949 9.04145455,15.3134545 9.04145455,16.182303 C9.04145455,16.8701414 8.86044444,17.4267475 8.49842424,17.8521212 C8.13640404,18.2774949 7.5209697,18.4901818 6.65212121,18.4901818 C5.51175758,18.4901818 4.48905051,18.3001212 3.584,17.92 C2.67894949,17.5398788 1.76484848,17.0692525 0.84169697,16.5081212 L0.84169697,16.5081212 L0,20.3093333 C0.923151515,20.9066667 1.93680808,21.3772929 3.0409697,21.7212121 C4.14513131,22.0651313 5.32169697,22.2370909 6.57066667,22.2370909 Z M22.4203636,21.9927273 L22.4203636,11.8380606 L26.4116364,11.8380606 L26.4116364,21.9927273 L31.4889697,21.9927273 L31.4889697,0.271515152 L26.4116364,0.271515152 L26.4116364,8.09115152 L22.4203636,8.09115152 L22.4203636,0.271515152 L17.3430303,0.271515152 L17.3430303,21.9927273 L22.4203636,21.9927273 Z M41.718303,22.2642424 C43.9628283,22.2642424 45.6869495,21.6307071 46.8906667,20.3636364 C48.0943838,19.0965657 48.6962424,17.3498182 48.6962424,15.1233939 L48.6962424,15.1233939 L48.6962424,7.24945455 C48.6962424,4.98682828 48.0989091,3.21292929 46.9042424,1.92775758 C45.7095757,0.642585859 43.9899798,-1.0658141e-14 41.7454545,-1.0658141e-14 C39.5009293,-1.0658141e-14 37.7768081,0.642585859 36.5730909,1.92775758 C35.3693737,3.21292929 34.7675151,4.98682828 34.7675151,7.24945455 L34.7675151,7.24945455 L34.7675151,15.1233939 C34.7675151,17.3498182 35.3648485,19.0965657 36.5595151,20.3636364 C37.7541818,21.6307071 39.4737778,22.2642424 41.718303,22.2642424 Z M41.718303,18.5173333 C41.0123636,18.5173333 40.5236364,18.2503434 40.2521212,17.7163636 C39.980606,17.1823838 39.8448485,16.1732525 39.8448485,14.6889697 L39.8448485,14.6889697 L39.8448485,7.68387879 C39.8448485,6.16339394 39.980606,5.12711111 40.2521212,4.5750303 C40.5236364,4.02294949 41.0123636,3.74690909 41.718303,3.74690909 C42.4423434,3.74690909 42.9401212,4.02294949 43.2116364,4.5750303 C43.4831515,5.12711111 43.6189091,6.16339394 43.6189091,7.68387879 L43.6189091,7.68387879 L43.6189091,14.6889697 C43.6189091,16.1732525 43.4831515,17.1823838 43.2116364,17.7163636 C42.9401212,18.2503434 42.4423434,18.5173333 41.718303,18.5173333 Z M57.0521212,21.9927273 L57.0521212,14.2273939 L57.7037576,14.2273939 L61.0705454,21.9927273 L66.3379394,21.9927273 L62.6724848,13.6843636 C63.5956363,13.2861414 64.306101,12.6118788 64.8038788,11.6615758 C65.3016565,10.7112727 65.5505454,9.53018182 65.5505454,8.11830303 L65.5505454,8.11830303 L65.5505454,6.21769697 C65.5505454,4.2989899 65.0572929,2.82828283 64.0707879,1.80557576 C63.0842828,0.782868687 61.6045252,0.271515152 59.6315151,0.271515152 L59.6315151,0.271515152 L51.9747879,0.271515152 L51.9747879,21.9927273 L57.0521212,21.9927273 Z M58.7626666,10.5076364 L57.0521212,10.5076364 L57.0521212,4.01842424 L58.7626666,4.01842424 C59.468606,4.01842424 59.9799596,4.17680808 60.2967273,4.49357576 C60.6134949,4.81034343 60.7718788,5.45745455 60.7718788,6.43490909 L60.7718788,6.43490909 L60.7718788,8.03684848 C60.7718788,9.01430303 60.6134949,9.67046465 60.2967273,10.0053333 C59.9799596,10.340202 59.468606,10.5076364 58.7626666,10.5076364 L58.7626666,10.5076364 Z M78.902303,21.9927273 L78.902303,4.01842424 L83.8710303,4.01842424 L83.8710303,0.271515152 L68.8290909,0.271515152 L68.8290909,4.01842424 L73.8249697,4.01842424 L73.8249697,21.9927273 L78.902303,21.9927273 Z M94.1003636,22.2642424 C96.525899,22.2642424 98.2997979,21.6578586 99.4220606,20.4450909 C100.544323,19.2323232 101.159758,17.2774141 101.268364,14.5803636 L101.268364,14.5803636 L96.1910303,14.3088485 C96.1186262,16.0465455 95.9376161,17.1823838 95.648,17.7163636 C95.3583838,18.2503434 94.824404,18.5173333 94.0460606,18.5173333 C93.1591111,18.5173333 92.5617777,18.2096162 92.2540606,17.5941818 C91.9463434,16.9787475 91.7924848,15.9288889 91.7924848,14.4446061 L91.7924848,14.4446061 L91.7924848,7.95539394 C91.7924848,6.38060606 91.9553939,5.28549495 92.2812121,4.67006061 C92.6070303,4.05462626 93.1953131,3.74690909 94.0460606,3.74690909 C94.842505,3.74690909 95.3810101,4.02294949 95.6615757,4.5750303 C95.9421414,5.12711111 96.1186262,6.29010101 96.1910303,8.064 L96.1910303,8.064 L101.268364,7.79248485 C101.141657,5.05923232 100.517172,3.07717172 99.3949091,1.84630303 C98.2726464,0.615434343 96.5077979,-1.0658141e-14 94.1003636,-1.0658141e-14 C91.6386262,-1.0658141e-14 89.7923232,0.629010101 88.5614545,1.8870303 C87.3305858,3.14505051 86.7151515,5.0139798 86.7151515,7.49381818 L86.7151515,7.49381818 L86.7151515,14.8790303 C86.7151515,17.3226667 87.3305858,19.1644444 88.5614545,20.4043636 C89.7923232,21.6442828 91.6386262,22.2642424 94.1003636,22.2642424 Z M110.981818,22.2642424 C113.407353,22.2642424 115.194828,21.6307071 116.344242,20.3636364 C117.493657,19.0965657 118.068364,17.1326061 118.068364,14.4717576 L118.068364,14.4717576 L118.068364,0.271515152 L112.99103,0.271515152 L112.99103,14.390303 C112.99103,15.9107879 112.846222,16.9425455 112.556606,17.4855758 C112.26699,18.0286061 111.742061,18.3001212 110.981818,18.3001212 C110.239677,18.3001212 109.723798,18.0286061 109.434182,17.4855758 C109.144566,16.9425455 108.999758,15.9107879 108.999758,14.390303 L108.999758,14.390303 L108.999758,0.271515152 L103.922424,0.271515152 L103.922424,14.4717576 C103.922424,17.1326061 104.492606,19.0965657 105.63297,20.3636364 C106.773333,21.6307071 108.556283,22.2642424 110.981818,22.2642424 Z M130.849939,21.9927273 L130.849939,4.01842424 L135.818667,4.01842424 L135.818667,0.271515152 L120.776727,0.271515152 L120.776727,4.01842424 L125.772606,4.01842424 L125.772606,21.9927273 L130.849939,21.9927273 Z M145.097697,22.2370909 C147.468929,22.2370909 149.319758,21.6578586 150.650182,20.4993939 C151.980606,19.3409293 152.645818,17.7389899 152.645818,15.6935758 C152.645818,14.0644848 152.23402,12.7431111 151.410424,11.7294545 C150.586828,10.715798 149.197576,9.81979798 147.242667,9.04145455 C145.993697,8.55272727 145.129374,8.12282828 144.649697,7.75175758 C144.17002,7.38068687 143.930182,6.8150303 143.930182,6.05478788 C143.930182,5.29454545 144.115717,4.73341414 144.486788,4.37139394 C144.857859,4.00937374 145.414465,3.82836364 146.156606,3.82836364 C146.934949,3.82836364 147.717818,3.96412121 148.505212,4.23563636 C149.292606,4.50715152 150.129778,4.90537374 151.016727,5.43030303 L151.016727,5.43030303 L151.614061,1.87345455 C150.89002,1.34852525 150.007596,0.909575758 148.966788,0.556606061 C147.92598,0.203636364 146.853495,0.0271515152 145.749333,0.0271515152 C143.522909,0.0271515152 141.825939,0.651636364 140.658424,1.90060606 C139.490909,3.14957576 138.907151,4.71531313 138.907151,6.59781818 C138.907151,8.2450101 139.314424,9.56185859 140.12897,10.5483636 C140.943515,11.5348687 142.319192,12.3810909 144.256,13.0870303 C145.468768,13.5395556 146.32404,13.9513535 146.821818,14.3224242 C147.319596,14.6934949 147.568485,15.3134545 147.568485,16.182303 C147.568485,16.8701414 147.387475,17.4267475 147.025454,17.8521212 C146.663434,18.2774949 146.048,18.4901818 145.179151,18.4901818 C144.038788,18.4901818 143.016081,18.3001212 142.11103,17.92 C141.20598,17.5398788 140.291879,17.0692525 139.368727,16.5081212 L139.368727,16.5081212 L138.52703,20.3093333 C139.450182,20.9066667 140.463838,21.3772929 141.568,21.7212121 C142.672162,22.0651313 143.848727,22.2370909 145.097697,22.2370909 Z" id="SHORTCUTS" fill="#FFFFFF"></path>
                            <path d="M6.38060606,51.8593939 C8.48032323,51.8593939 10.1410909,51.1896566 11.3629091,49.8501818 C12.5847273,48.5107071 13.1956364,46.7277576 13.1956364,44.5013333 L13.1956364,44.5013333 L13.1956364,37.6048485 C13.1956364,35.3422222 12.5847273,33.5321212 11.3629091,32.1745455 C10.1410909,30.8169697 8.48032323,30.1381818 6.38060606,30.1381818 L6.38060606,30.1381818 L1.46618182,30.1381818 L1.46618182,51.8593939 L6.38060606,51.8593939 Z M6.40775758,49.9044848 L3.63830303,49.9044848 L3.63830303,32.0930909 L6.40775758,32.0930909 C7.91014141,32.0930909 9.05050505,32.5863434 9.82884848,33.5728485 C10.6071919,34.5593535 10.9963636,35.858101 10.9963636,37.4690909 L10.9963636,37.4690909 L10.9963636,44.6370909 C10.9963636,46.2299798 10.6071919,47.506101 9.82884848,48.4654545 C9.05050505,49.4248081 7.91014141,49.9044848 6.40775758,49.9044848 L6.40775758,49.9044848 Z M30.0227879,51.8593939 L30.0227879,49.9044848 L25.4884848,49.9044848 L25.4884848,32.0930909 L30.0227879,32.0930909 L30.0227879,30.1381818 L18.7820606,30.1381818 L18.7820606,32.0930909 L23.3163636,32.0930909 L23.3163636,49.9044848 L18.7820606,49.9044848 L18.7820606,51.8593939 L30.0227879,51.8593939 Z M38.2700606,51.8593939 L38.2700606,43.1980606 L41.5282424,43.1980606 L46.2254545,51.8593939 L48.7233939,51.8593939 L43.9990303,43.1980606 C45.5195151,43.0170505 46.6553535,42.4468687 47.4065454,41.4875152 C48.1577374,40.5281616 48.5333333,39.1615354 48.5333333,37.3876364 L48.5333333,37.3876364 L48.5333333,35.785697 C48.5333333,33.8850909 48.0672323,32.4686869 47.1350303,31.5364848 C46.2028283,30.6042828 44.7954747,30.1381818 42.9129697,30.1381818 L42.9129697,30.1381818 L36.0979394,30.1381818 L36.0979394,51.8593939 L38.2700606,51.8593939 Z M42.8858182,41.2974545 L38.2700606,41.2974545 L38.2700606,32.0930909 L42.8858182,32.0930909 C44.1166869,32.0930909 45.0036364,32.3827071 45.5466667,32.9619394 C46.089697,33.5411717 46.3612121,34.4552727 46.3612121,35.7042424 L46.3612121,35.7042424 L46.3612121,37.4147879 C46.3612121,38.7542626 46.089697,39.7362424 45.5466667,40.3607273 C45.0036364,40.9852121 44.1166869,41.2974545 42.8858182,41.2974545 L42.8858182,41.2974545 Z M65.1432727,51.8593939 L65.1432727,49.9044848 L55.5859394,49.9044848 L55.5859394,40.9716364 L64.0029091,40.9716364 L64.0029091,38.9895758 L55.5859394,38.9895758 L55.5859394,32.0930909 L65.1432727,32.0930909 L65.1432727,30.1381818 L53.4138182,30.1381818 L53.4138182,51.8593939 L65.1432727,51.8593939 Z M76.5944242,52.1309091 C78.6398384,52.1309091 80.1693737,51.556202 81.1830303,50.4067879 C82.1966868,49.2573737 82.7668687,47.469899 82.8935757,45.0443636 L82.8935757,45.0443636 L80.748606,44.7728485 C80.5856969,46.8001616 80.2055757,48.2075152 79.6082424,48.9949091 C79.0109091,49.782303 78.006303,50.176 76.5944242,50.176 C75.1463434,50.176 74.0919596,49.7415758 73.4312727,48.8727273 C72.7705858,48.0038788 72.4402424,46.6553535 72.4402424,44.8271515 L72.4402424,44.8271515 L72.4402424,37.2790303 C72.4402424,35.3060202 72.7524848,33.9031919 73.3769697,33.0705455 C74.0014545,32.237899 75.0739394,31.8215758 76.5944242,31.8215758 C78.006303,31.8215758 79.0154343,32.2288485 79.6218182,33.0433939 C80.228202,33.8579394 80.603798,35.2879192 80.748606,37.3333333 L80.748606,37.3333333 L82.8935757,37.0618182 C82.7668687,34.6000808 82.1966868,32.7854545 81.1830303,31.6179394 C80.1693737,30.4504242 78.6398384,29.8666667 76.5944242,29.8666667 C74.494707,29.8666667 72.9108687,30.5047273 71.8429091,31.7808485 C70.7749495,33.0569697 70.2409697,34.9530505 70.2409697,37.4690909 L70.2409697,37.4690909 L70.2409697,44.6370909 C70.2409697,47.1169293 70.7749495,48.9858586 71.8429091,50.2438788 C72.9108687,51.501899 74.494707,52.1309091 76.5944242,52.1309091 Z M94.752,51.8593939 L94.752,32.0930909 L100.372364,32.0930909 L100.372364,30.1381818 L86.9866666,30.1381818 L86.9866666,32.0930909 L92.5798788,32.0930909 L92.5798788,51.8593939 L94.752,51.8593939 Z M110.981818,52.1309091 C112.972929,52.1309091 114.488889,51.483798 115.529697,50.1895758 C116.570505,48.8953535 117.090909,47.0083232 117.090909,44.5284848 L117.090909,44.5284848 L117.090909,37.577697 C117.090909,35.0435556 116.570505,33.1248485 115.529697,31.8215758 C114.488889,30.518303 112.98198,29.8666667 111.00897,29.8666667 C109.017859,29.8666667 107.497374,30.518303 106.447515,31.8215758 C105.397657,33.1248485 104.872727,35.0435556 104.872727,37.577697 L104.872727,37.577697 L104.872727,44.5284848 C104.872727,47.0083232 105.397657,48.8953535 106.447515,50.1895758 C107.497374,51.483798 109.008808,52.1309091 110.981818,52.1309091 Z M110.981818,50.176 C109.569939,50.176 108.565333,49.7551515 107.968,48.9134545 C107.370667,48.0717576 107.072,46.664404 107.072,44.6913939 L107.072,44.6913939 L107.072,37.4147879 C107.072,35.4055758 107.370667,33.9710707 107.968,33.1112727 C108.565333,32.2514747 109.569939,31.8215758 110.981818,31.8215758 C112.393697,31.8215758 113.398303,32.2514747 113.995636,33.1112727 C114.59297,33.9710707 114.891636,35.4055758 114.891636,37.4147879 L114.891636,37.4147879 L114.891636,44.6913939 C114.891636,46.664404 114.59297,48.0717576 113.995636,48.9134545 C113.398303,49.7551515 112.393697,50.176 110.981818,50.176 Z M124.849455,51.8593939 L124.849455,43.1980606 L128.107636,43.1980606 L132.804848,51.8593939 L135.302788,51.8593939 L130.578424,43.1980606 C132.098909,43.0170505 133.234747,42.4468687 133.985939,41.4875152 C134.737131,40.5281616 135.112727,39.1615354 135.112727,37.3876364 L135.112727,37.3876364 L135.112727,35.785697 C135.112727,33.8850909 134.646626,32.4686869 133.714424,31.5364848 C132.782222,30.6042828 131.374869,30.1381818 129.492364,30.1381818 L129.492364,30.1381818 L122.677333,30.1381818 L122.677333,51.8593939 L124.849455,51.8593939 Z M129.465212,41.2974545 L124.849455,41.2974545 L124.849455,32.0930909 L129.465212,32.0930909 C130.696081,32.0930909 131.58303,32.3827071 132.126061,32.9619394 C132.669091,33.5411717 132.940606,34.4552727 132.940606,35.7042424 L132.940606,35.7042424 L132.940606,37.4147879 C132.940606,38.7542626 132.669091,39.7362424 132.126061,40.3607273 C131.58303,40.9852121 130.696081,41.2974545 129.465212,41.2974545 L129.465212,41.2974545 Z M146.699636,51.8593939 L146.699636,43.7139394 L153.216,30.1381818 L150.799515,30.1381818 L145.776485,41.4875152 L140.454788,30.1381818 L138.011151,30.1381818 L144.527515,43.7139394 L144.527515,51.8593939 L146.699636,51.8593939 Z" id="DIRECTORY" fill="#FFA7ED"></path>
                        </g>
                    </g>
                </g>
            </g>
        </g>
    </g>
</svg>